<svg xmlns="http://www.w3.org/2000/svg" width="64" height="64" viewBox="0 0 64 64">
  <defs>
    <radialGradient id="appleBody" cx="35%" cy="30%" r="70%">
      <stop offset="0%" stop-color="#ff8a7a"/>
      <stop offset="65%" stop-color="#e64637"/>
      <stop offset="100%" stop-color="#b82a21"/>
    </radialGradient>
  </defs>
  <rect width="64" height="64" fill="none"/>
  <path d="M32 11c3 0 5-3 7-6 1-1 3 0 2 2-2 4-4 8-9 8-1 0-1-4 0-4z" fill="#5d3c24"/>
  <path d="M34 13c5-4 11-4 14 1-6 2-10 3-14-1z" fill="#56a63c"/>
  <path d="M32 18c-8-6-20 1-20 16 0 17 11 24 20 24s20-7 20-24c0-15-12-22-20-16z" fill="url(#appleBody)"/>
  <ellipse cx="24" cy="28" rx="6" ry="9" fill="#ffffff" opacity="0.2"/>
</svg>
