<svg xmlns="http://www.w3.org/2000/svg" width="64" height="64" viewBox="0 0 64 64">
  <defs>
    <linearGradient id="fat" x1="0" y1="0" x2="1" y2="1">
      <stop offset="0%" stop-color="#ffd8c8"/>
      <stop offset="100%" stop-color="#f5b7a2"/>
    </linearGradient>
    <linearGradient id="meat" x1="0" y1="0" x2="1" y2="1">
      <stop offset="0%" stop-color="#c84f46"/>
      <stop offset="100%" stop-color="#9f2e28"/>
    </linearGradient>
  </defs>
  <rect width="64" height="64" fill="none"/>
  <path d="M12 18c7-4 15-4 23 0s16 4 23 0v8c-7 4-15 4-23 0s-16-4-23 0z" fill="url(#fat)"/>
  <path d="M12 26c7-4 15-4 23 0s16 4 23 0v8c-7 4-15 4-23 0s-16-4-23 0z" fill="url(#meat)"/>
  <path d="M12 34c7-4 15-4 23 0s16 4 23 0v8c-7 4-15 4-23 0s-16-4-23 0z" fill="url(#fat)"/>
  <path d="M12 42c7-4 15-4 23 0s16 4 23 0v8c-7 4-15 4-23 0s-16-4-23 0z" fill="url(#meat)"/>
</svg>
