<svg xmlns="http://www.w3.org/2000/svg" width="64" height="64" viewBox="0 0 64 64">
  <defs>
    <linearGradient id="bananaBody" x1="0" y1="0" x2="1" y2="1">
      <stop offset="0%" stop-color="#fff5a6"/>
      <stop offset="55%" stop-color="#f5d84e"/>
      <stop offset="100%" stop-color="#e0b72a"/>
    </linearGradient>
  </defs>
  <rect width="64" height="64" fill="none"/>
  <path d="M12 43c8 10 24 14 39 8 2-1 3-3 1-5-14 5-27 2-34-7-1-2-3-2-5-1-2 1-2 3-1 5z" fill="#5f4622"/>
  <path d="M11 39c8 10 24 14 39 8 3-1 4-4 2-6-15 6-28 2-36-8-1-2-4-3-6-1-2 2-2 5 1 7z" fill="url(#bananaBody)"/>
  <path d="M14 36c7 9 20 13 33 9" stroke="#fff1a2" stroke-width="2" stroke-linecap="round" fill="none" opacity="0.6"/>
</svg>
