<svg xmlns="http://www.w3.org/2000/svg" width="64" height="64" viewBox="0 0 64 64">
  <defs>
    <radialGradient id="lemonBody" cx="40%" cy="35%" r="70%">
      <stop offset="0%" stop-color="#d8ff9a"/>
      <stop offset="60%" stop-color="#79d84a"/>
      <stop offset="100%" stop-color="#3e9f2d"/>
    </radialGradient>
  </defs>
  <rect width="64" height="64" fill="none"/>
  <path d="M16 32c0-9 7-16 16-16h0c9 0 16 7 16 16s-7 16-16 16h0c-9 0-16-7-16-16z" fill="url(#lemonBody)"/>
  <path d="M16 32c-3 0-6-2-8-4 2-2 5-4 8-4" fill="#58b53b"/>
  <path d="M48 32c3 0 6-2 8-4-2-2-5-4-8-4" fill="#58b53b"/>
  <ellipse cx="27" cy="27" rx="5" ry="7" fill="#ffffff" opacity="0.2"/>
</svg>
